<svg width="63" height="30" viewBox="0 0 63 30" fill="none" xmlns="http://www.w3.org/2000/svg">
<path d="M10.8892 2.18887C11.7432 1.12141 13.0361 0.5 14.4031 0.5H58C60.4853 0.5 62.5 2.51472 62.5 5V25C62.5 27.4853 60.4853 29.5 58 29.5H14.4031C13.0361 29.5 11.7432 28.8786 10.8892 27.8111L2.88922 17.8111C1.57443 16.1676 1.57443 13.8324 2.88921 12.1889L10.8892 2.18887Z" stroke="#FFA015"/>
<path d="M23.0783 20V9.81818H27.155C27.9041 9.81818 28.5288 9.92921 29.0293 10.1513C29.5298 10.3733 29.906 10.6816 30.1578 11.076C30.4097 11.4671 30.5357 11.9179 30.5357 12.4283C30.5357 12.826 30.4561 13.1757 30.2971 13.4773C30.138 13.7756 29.9192 14.0208 29.6408 14.2131C29.3657 14.402 29.0508 14.5362 28.6962 14.6158V14.7152C29.084 14.7318 29.4469 14.8411 29.785 15.0433C30.1264 15.2455 30.4031 15.5289 30.6152 15.8935C30.8274 16.2547 30.9334 16.6856 30.9334 17.1861C30.9334 17.7263 30.7992 18.2086 30.5307 18.6328C30.2656 19.0537 29.8728 19.3868 29.3525 19.6321C28.8321 19.8774 28.1908 20 27.4284 20H23.0783ZM25.231 18.2401H26.986C27.5859 18.2401 28.0234 18.1257 28.2985 17.897C28.5736 17.665 28.7111 17.3568 28.7111 16.9723C28.7111 16.6906 28.6432 16.442 28.5073 16.2266C28.3714 16.0111 28.1775 15.8421 27.9256 15.7195C27.677 15.5968 27.3804 15.5355 27.0357 15.5355H25.231V18.2401ZM25.231 14.0788H26.8269C27.1219 14.0788 27.3837 14.0275 27.6124 13.9247C27.8444 13.8187 28.0267 13.6695 28.1593 13.4773C28.2952 13.285 28.3631 13.0547 28.3631 12.7862C28.3631 12.4183 28.2322 12.1217 27.9703 11.8963C27.7118 11.6709 27.3439 11.5582 26.8667 11.5582H25.231V14.0788ZM38.6232 9.81818H40.7759V16.4304C40.7759 17.1728 40.5986 17.8224 40.244 18.3793C39.8926 18.9361 39.4005 19.3703 38.7674 19.6818C38.1344 19.9901 37.3969 20.1442 36.555 20.1442C35.7099 20.1442 34.9708 19.9901 34.3377 19.6818C33.7047 19.3703 33.2125 18.9361 32.8612 18.3793C32.5098 17.8224 32.3342 17.1728 32.3342 16.4304V9.81818H34.4869V16.2464C34.4869 16.6342 34.5714 16.9789 34.7404 17.2805C34.9128 17.5821 35.1547 17.8191 35.4663 17.9915C35.7778 18.1638 36.1407 18.25 36.555 18.25C36.9727 18.25 37.3356 18.1638 37.6438 17.9915C37.9554 17.8191 38.1957 17.5821 38.3647 17.2805C38.5371 16.9789 38.6232 16.6342 38.6232 16.2464V9.81818ZM41.9505 9.81818H44.3617L46.6834 14.2031H46.7828L49.1046 9.81818H51.5158L47.802 16.4006V20H45.6642V16.4006L41.9505 9.81818Z" fill="#FFA015"/>
<circle cx="11" cy="15" r="2.5" stroke="#FFA015"/>
</svg>
