<svg width="30" height="30" viewBox="0 0 30 30" fill="none" xmlns="http://www.w3.org/2000/svg">
<path d="M26.6379 8.59796L21.402 3.36085C21.2278 3.18669 21.0211 3.04854 20.7936 2.95429C20.5661 2.86004 20.3223 2.81152 20.076 2.81152C19.8297 2.81152 19.5859 2.86004 19.3584 2.95429C19.1308 3.04854 18.9241 3.18669 18.75 3.36085L4.29962 17.8124C4.12475 17.9859 3.98611 18.1924 3.89176 18.4199C3.79741 18.6475 3.74922 18.8915 3.75001 19.1378V24.3749C3.75001 24.8722 3.94755 25.3491 4.29918 25.7007C4.65081 26.0524 5.12773 26.2499 5.62501 26.2499H10.8621C11.1084 26.2507 11.3525 26.2025 11.58 26.1082C11.8075 26.0138 12.014 25.8752 12.1875 25.7003L26.6379 11.2499C26.8121 11.0758 26.9502 10.8691 27.0445 10.6416C27.1387 10.4141 27.1872 10.1702 27.1872 9.92394C27.1872 9.67767 27.1387 9.43382 27.0445 9.20631C26.9502 8.97879 26.8121 8.77207 26.6379 8.59796ZM6.0129 18.7499L15.9375 8.8253L17.8934 10.7812L7.96876 20.7046L6.0129 18.7499ZM5.62501 21.0128L8.98712 24.3749H5.62501V21.0128ZM11.25 23.987L9.29415 22.0312L19.2188 12.1066L21.1746 14.0624L11.25 23.987ZM22.5 12.737L17.2629 7.49991L20.0754 4.68741L25.3125 9.92335L22.5 12.737Z" fill="#FFA015"/>
</svg>
