<svg width="85" height="85" viewBox="0 0 85 85" fill="none" xmlns="http://www.w3.org/2000/svg">
<path d="M30.673 12.634C30.5416 12.1271 30.5115 11.5993 30.5843 11.0807C30.657 10.5622 30.8313 10.0631 31.0971 9.61193C31.363 9.16078 31.7151 8.76646 32.1334 8.4515C32.5517 8.13654 33.028 7.90713 33.5351 7.77638C39.4152 6.25813 45.5846 6.25813 51.4648 7.77638C51.9828 7.89631 52.4715 8.1187 52.9022 8.43046C53.333 8.74221 53.6969 9.13702 53.9727 9.59162C54.2484 10.0462 54.4304 10.5514 54.5079 11.0774C54.5854 11.6035 54.5568 12.1397 54.4238 12.6545C54.2909 13.1693 54.0562 13.6523 53.7337 14.075C53.4112 14.4977 53.0073 14.8516 52.5459 15.1158C52.0844 15.38 51.5748 15.5491 51.047 15.6133C50.5192 15.6775 49.9839 15.6354 49.4726 15.4895C44.8989 14.3102 40.1009 14.3102 35.5273 15.4895C34.5049 15.754 33.4194 15.6018 32.5092 15.0664C31.599 14.5309 30.9385 13.6561 30.673 12.634ZM16.9136 17.3787C12.6601 21.7123 9.57561 27.0542 7.94876 32.9045C7.80903 33.409 7.77009 33.9361 7.83415 34.4556C7.89821 34.9752 8.06402 35.477 8.32211 35.9324C8.5802 36.3879 8.92551 36.788 9.3383 37.1099C9.75109 37.4318 10.2233 37.6692 10.7279 37.8086C11.0741 37.9031 11.4314 37.9511 11.7904 37.9514C12.6616 37.951 13.5087 37.665 14.2019 37.1373C14.8952 36.6096 15.3963 35.8692 15.6286 35.0295C16.8939 30.4811 19.293 26.3283 22.6013 22.9602C22.9678 22.5867 23.2571 22.1447 23.4528 21.6594C23.6485 21.1742 23.7466 20.6551 23.7417 20.1319C23.7368 19.6087 23.6288 19.0915 23.424 18.61C23.2193 18.1285 22.9216 17.6921 22.5482 17.3256C22.1747 16.9591 21.7327 16.6698 21.2474 16.4741C20.7622 16.2784 20.2431 16.1803 19.7199 16.1852C19.1967 16.1901 18.6795 16.2981 18.198 16.5029C17.7165 16.7076 17.2801 17.0053 16.9136 17.3787ZM15.6253 49.9643C15.3256 48.9659 14.6466 48.1248 13.7339 47.6213C12.8212 47.1177 11.7475 46.9919 10.7432 47.2708C9.7388 47.5497 8.88372 48.2111 8.36132 49.1131C7.83893 50.0151 7.69082 51.086 7.94876 52.0959C9.57324 57.9491 12.658 63.2937 16.9136 67.6283C17.6678 68.3138 18.656 68.6842 19.675 68.6634C20.6939 68.6426 21.6661 68.232 22.3917 67.5163C23.1172 66.8005 23.5409 65.834 23.5755 64.8154C23.6102 63.7968 23.2532 62.8037 22.5781 62.0402C19.2761 58.668 16.8838 54.513 15.6253 49.9643ZM49.4726 69.511C44.8991 70.6918 40.1007 70.6918 35.5273 69.511C35.016 69.365 34.4807 69.3229 33.9529 69.3871C33.425 69.4513 32.9154 69.6204 32.454 69.8846C31.9926 70.1488 31.5887 70.5027 31.2662 70.9254C30.9436 71.3481 30.709 71.8311 30.576 72.3459C30.4431 72.8607 30.4145 73.3969 30.4919 73.923C30.5694 74.449 30.7514 74.9542 31.0272 75.4088C31.3029 75.8634 31.6669 76.2582 32.0976 76.57C32.5283 76.8817 33.0171 77.1041 33.5351 77.224C39.4152 78.7423 45.5846 78.7423 51.4648 77.224C51.9828 77.1041 52.4715 76.8817 52.9022 76.57C53.333 76.2582 53.6969 75.8634 53.9727 75.4088C54.2484 74.9542 54.4304 74.449 54.5079 73.923C54.5854 73.3969 54.5568 72.8607 54.4238 72.3459C54.2909 71.8311 54.0562 71.3481 53.7337 70.9254C53.4112 70.5027 53.0073 70.1488 52.5459 69.8846C52.0844 69.6204 51.5748 69.4513 51.047 69.3871C50.5192 69.3229 49.9839 69.365 49.4726 69.511ZM74.282 47.1918C73.2654 46.9146 72.1804 47.0514 71.2644 47.5723C70.3485 48.0931 69.6761 48.9556 69.3945 49.9709C68.1292 54.5193 65.7301 58.6721 62.4218 62.0402C61.6812 62.794 61.2704 63.8112 61.2797 64.8678C61.2891 65.9245 61.7178 66.9342 62.4716 67.6748C63.2254 68.4154 64.2425 68.8262 65.2992 68.8169C66.3559 68.8075 67.3656 68.3788 68.1062 67.625C72.3591 63.2897 75.4435 57.9469 77.071 52.0959C77.2105 51.5905 77.2489 51.0626 77.184 50.5424C77.1191 50.0222 76.9521 49.5199 76.6927 49.0643C76.4333 48.6087 76.0865 48.2088 75.6723 47.8875C75.258 47.5662 74.7844 47.3298 74.2786 47.1918H74.282ZM69.3779 35.0361C69.6776 36.0345 70.3566 36.8756 71.2693 37.3792C72.182 37.8827 73.2557 38.0085 74.26 37.7296C75.2644 37.4507 76.1195 36.7893 76.6419 35.8873C77.1643 34.9853 77.3124 33.9145 77.0544 32.9045C75.4299 27.0513 72.3452 21.7067 68.0896 17.3721C67.7299 16.9699 67.2923 16.6449 66.8033 16.4169C66.3143 16.1888 65.784 16.0625 65.2447 16.0455C64.7054 16.0286 64.1683 16.1213 63.6659 16.3182C63.1635 16.515 62.7063 16.8119 62.3221 17.1907C61.9379 17.5695 61.6346 18.0224 61.4306 18.522C61.2267 19.0215 61.1264 19.5573 61.1357 20.0968C61.145 20.6363 61.2638 21.1683 61.4849 21.6605C61.706 22.1527 62.0247 22.5948 62.4218 22.9602C65.7238 26.3324 68.116 30.4874 69.3745 35.0361H69.3779Z" fill="#444444"/>
</svg>
