<svg width="30" height="30" viewBox="0 0 30 30" fill="none" xmlns="http://www.w3.org/2000/svg">
<path d="M15.0003 8.90625C13.7951 8.90625 12.6169 9.26364 11.6148 9.93323C10.6127 10.6028 9.83165 11.5545 9.37043 12.668C8.90921 13.7815 8.78853 15.0068 9.02366 16.1888C9.25878 17.3709 9.83916 18.4567 10.6914 19.3089C11.5436 20.1612 12.6294 20.7415 13.8115 20.9767C14.9936 21.2118 16.2188 21.0911 17.3323 20.6299C18.4458 20.1687 19.3975 19.3876 20.0671 18.3855C20.7367 17.3834 21.0941 16.2052 21.0941 15C21.0925 13.3843 20.45 11.8352 19.3075 10.6928C18.1651 9.55032 16.616 8.9078 15.0003 8.90625ZM15.0003 18.2812C14.3513 18.2812 13.717 18.0888 13.1774 17.7283C12.6378 17.3677 12.2172 16.8552 11.9688 16.2557C11.7205 15.6561 11.6555 14.9964 11.7821 14.3599C11.9087 13.7234 12.2212 13.1387 12.6801 12.6798C13.139 12.2209 13.7237 11.9084 14.3602 11.7818C14.9967 11.6552 15.6564 11.7202 16.256 11.9685C16.8556 12.2169 17.368 12.6374 17.7286 13.177C18.0891 13.7166 18.2816 14.351 18.2816 15C18.2816 15.8702 17.9359 16.7048 17.3205 17.3202C16.7052 17.9355 15.8706 18.2812 15.0003 18.2812ZM22.6597 26.4375L28.3046 16.125C28.4943 15.7804 28.5937 15.3934 28.5937 15C28.5937 14.6066 28.4943 14.2196 28.3046 13.875L22.6597 3.5625C22.4578 3.1935 22.1603 2.88563 21.7984 2.67119C21.4366 2.45675 21.0237 2.34365 20.6031 2.34375L9.39758 2.34375C8.97696 2.34365 8.56405 2.45675 8.20219 2.67119C7.84033 2.88563 7.54284 3.1935 7.34094 3.5625L1.69602 13.875C1.50614 14.2196 1.40655 14.6066 1.40655 15C1.40655 15.3934 1.50614 15.7804 1.69602 16.125L7.34094 26.4375C7.54284 26.8065 7.84033 27.1144 8.20219 27.3288C8.56405 27.5432 8.97696 27.6563 9.39758 27.6562L20.6031 27.6562C21.0237 27.6563 21.4366 27.5432 21.7984 27.3288C22.1603 27.1144 22.4578 26.8065 22.6597 26.4375ZM9.67532 24.8437L4.28469 15L9.67532 5.15625L20.3253 5.15625L25.7159 15L20.3253 24.8437L9.67532 24.8437Z" fill="white"/>
</svg>
