<svg width="32" height="32" viewBox="0 0 32 32" fill="none" xmlns="http://www.w3.org/2000/svg">
<path d="M27.695 12.6064L17.7013 3.17266L17.6812 3.15391C17.222 2.7336 16.622 2.50049 15.9994 2.50049C15.3768 2.50049 14.7768 2.7336 14.3175 3.15391L14.2963 3.17266L4.305 12.6064C4.05163 12.8408 3.84935 13.125 3.71084 13.4412C3.57233 13.7574 3.50055 14.0987 3.5 14.4439V26.0002C3.5 26.6632 3.76339 27.2991 4.23223 27.7679C4.70107 28.2368 5.33696 28.5002 6 28.5002H12C12.663 28.5002 13.2989 28.2368 13.7678 27.7679C14.2366 27.2991 14.5 26.6632 14.5 26.0002V20.5002H17.5V26.0002C17.5 26.6632 17.7634 27.2991 18.2322 27.7679C18.7011 28.2368 19.337 28.5002 20 28.5002H26C26.663 28.5002 27.2989 28.2368 27.7678 27.7679C28.2366 27.2991 28.5 26.6632 28.5 26.0002V14.4439C28.4995 14.0987 28.4277 13.7574 28.2892 13.4412C28.1506 13.125 27.9484 12.8408 27.695 12.6064ZM25.5 25.5002H20.5V20.0002C20.5 19.6719 20.4353 19.3468 20.3097 19.0434C20.1841 18.7401 19.9999 18.4645 19.7678 18.2324C19.5356 18.0002 19.26 17.8161 18.9567 17.6905C18.6534 17.5648 18.3283 17.5002 18 17.5002H14C13.337 17.5002 12.7011 17.7635 12.2322 18.2324C11.7634 18.7012 11.5 19.3371 11.5 20.0002V25.5002H6.5V14.6602L16 5.69141L25.5 14.6602V25.5002Z" fill="white"/>
</svg>
