<svg width="63" height="30" viewBox="0 0 63 30" fill="none" xmlns="http://www.w3.org/2000/svg">
<path d="M10.8892 2.18887C11.7432 1.12141 13.0361 0.5 14.4031 0.5H58C60.4853 0.5 62.5 2.51472 62.5 5V25C62.5 27.4853 60.4853 29.5 58 29.5H14.4031C13.0361 29.5 11.7432 28.8786 10.8892 27.8111L2.88922 17.8111C1.57443 16.1676 1.57443 13.8324 2.88921 12.1889L10.8892 2.18887Z" stroke="#FFA015"/>
<path d="M33.4283 9.81818V20H31.2756V9.81818H33.4283ZM43.7157 9.81818V20H41.8564L37.4267 13.5916H37.3521V20H35.1994V9.81818H37.0886L41.4835 16.2216H41.573V9.81818H43.7157Z" fill="#FFA015"/>
<circle cx="11" cy="15" r="2.5" stroke="#FFA015"/>
</svg>
