<svg width="26" height="25" viewBox="0 0 26 25" fill="none" xmlns="http://www.w3.org/2000/svg">
<path d="M15 6.50004V11.6513L19.2712 14.2138C19.444 14.3132 19.5952 14.4459 19.716 14.6044C19.8368 14.7628 19.9249 14.9438 19.975 15.1366C20.0251 15.3295 20.0363 15.5304 20.0079 15.7276C19.9796 15.9249 19.9122 16.1145 19.8097 16.2854C19.7072 16.4563 19.5717 16.605 19.4111 16.723C19.2505 16.8409 19.068 16.9257 18.8743 16.9723C18.6806 17.019 18.4795 17.0265 18.2828 16.9946C18.0861 16.9626 17.8978 16.8918 17.7288 16.7863L12.7288 13.7863C12.5065 13.6531 12.3226 13.4646 12.1949 13.2392C12.0672 13.0138 12 12.7591 12 12.5V6.50004C12 6.10222 12.158 5.72069 12.4393 5.43938C12.7206 5.15808 13.1022 5.00004 13.5 5.00004C13.8978 5.00004 14.2794 5.15808 14.5607 5.43938C14.842 5.72069 15 6.10222 15 6.50004ZM13.5 4.11853e-05C11.8564 -0.00419103 10.2282 0.317795 8.70994 0.947342C7.19165 1.57689 5.81338 2.50148 4.655 3.66754C4.06875 4.26004 3.53 4.83879 3 5.41754V4.50004C3 4.10222 2.84196 3.72069 2.56066 3.43938C2.27936 3.15808 1.89782 3.00004 1.5 3.00004C1.10218 3.00004 0.720644 3.15808 0.43934 3.43938C0.158035 3.72069 0 4.10222 0 4.50004V9.50004C0 9.89787 0.158035 10.2794 0.43934 10.5607C0.720644 10.842 1.10218 11 1.5 11H6.5C6.89782 11 7.27936 10.842 7.56066 10.5607C7.84196 10.2794 8 9.89787 8 9.50004C8 9.10222 7.84196 8.72069 7.56066 8.43938C7.27936 8.15808 6.89782 8.00004 6.5 8.00004H4.72125C5.375 7.25004 6.04625 6.52754 6.7825 5.78254C8.1027 4.46196 9.78281 3.55973 11.6129 3.18861C13.4429 2.81748 15.3418 2.99391 17.0721 3.69586C18.8025 4.3978 20.2876 5.59412 21.3419 7.13533C22.3962 8.67654 22.9729 10.4943 23 12.3614C23.0271 14.2285 22.5033 16.0622 21.4941 17.6333C20.4849 19.2044 19.0351 20.4433 17.3258 21.1951C15.6165 21.9469 13.7236 22.1783 11.8835 21.8604C10.0435 21.5425 8.33792 20.6893 6.98 19.4075C6.69058 19.1344 6.3045 18.9874 5.90669 18.9988C5.50888 19.0103 5.13192 19.1794 4.85875 19.4688C4.58558 19.7582 4.43856 20.1443 4.45005 20.5421C4.46154 20.9399 4.63058 21.3169 4.92 21.59C6.40378 22.9906 8.20787 24.0067 10.1747 24.5495C12.1416 25.0924 14.2115 25.1455 16.2036 24.7042C18.1957 24.263 20.0495 23.3408 21.6032 22.0181C23.1568 20.6955 24.3631 19.0126 25.1166 17.1164C25.8702 15.2203 26.1481 13.1685 25.9261 11.1402C25.7042 9.11189 24.989 7.16877 23.8432 5.48047C22.6974 3.79217 21.1557 2.41003 19.3528 1.45473C17.5498 0.499419 15.5404 -1.11311e-05 13.5 4.11853e-05Z" fill="white"/>
</svg>
