<svg width="63" height="30" viewBox="0 0 63 30" fill="none" xmlns="http://www.w3.org/2000/svg">
<path d="M10.8892 2.18887C11.7432 1.12141 13.0361 0.5 14.4031 0.5H58C60.4853 0.5 62.5 2.51472 62.5 5V25C62.5 27.4853 60.4853 29.5 58 29.5H14.4031C13.0361 29.5 11.7432 28.8786 10.8892 27.8111L2.88922 17.8111C1.57443 16.1676 1.57443 13.8324 2.88921 12.1889L10.8892 2.18887Z" stroke="#FFA015"/>
<path d="M32.4837 14.9091C32.4837 16.0194 32.2732 16.964 31.8523 17.7429C31.4347 18.5218 30.8646 19.1167 30.142 19.5277C29.4228 19.9354 28.6141 20.1392 27.7159 20.1392C26.8111 20.1392 25.9991 19.9337 25.2798 19.5227C24.5606 19.1117 23.9922 18.5168 23.5746 17.7379C23.157 16.959 22.9482 16.0161 22.9482 14.9091C22.9482 13.7988 23.157 12.8542 23.5746 12.0753C23.9922 11.2964 24.5606 10.7031 25.2798 10.2955C25.9991 9.88447 26.8111 9.67898 27.7159 9.67898C28.6141 9.67898 29.4228 9.88447 30.142 10.2955C30.8646 10.7031 31.4347 11.2964 31.8523 12.0753C32.2732 12.8542 32.4837 13.7988 32.4837 14.9091ZM30.3011 14.9091C30.3011 14.1899 30.1934 13.5833 29.978 13.0895C29.7659 12.5956 29.4659 12.2211 29.0781 11.9659C28.6903 11.7107 28.2363 11.5831 27.7159 11.5831C27.1955 11.5831 26.7415 11.7107 26.3537 11.9659C25.9659 12.2211 25.6643 12.5956 25.4489 13.0895C25.2367 13.5833 25.1307 14.1899 25.1307 14.9091C25.1307 15.6283 25.2367 16.2348 25.4489 16.7287C25.6643 17.2225 25.9659 17.5971 26.3537 17.8523C26.7415 18.1075 27.1955 18.2351 27.7159 18.2351C28.2363 18.2351 28.6903 18.1075 29.0781 17.8523C29.4659 17.5971 29.7659 17.2225 29.978 16.7287C30.1934 16.2348 30.3011 15.6283 30.3011 14.9091ZM40.3674 9.81818H42.5201V16.4304C42.5201 17.1728 42.3427 17.8224 41.9881 18.3793C41.6368 18.9361 41.1446 19.3703 40.5115 19.6818C39.8785 19.9901 39.141 20.1442 38.2992 20.1442C37.454 20.1442 36.7149 19.9901 36.0819 19.6818C35.4488 19.3703 34.9566 18.9361 34.6053 18.3793C34.254 17.8224 34.0783 17.1728 34.0783 16.4304V9.81818H36.231V16.2464C36.231 16.6342 36.3155 16.9789 36.4846 17.2805C36.6569 17.5821 36.8989 17.8191 37.2104 17.9915C37.522 18.1638 37.8849 18.25 38.2992 18.25C38.7168 18.25 39.0797 18.1638 39.388 17.9915C39.6995 17.8191 39.9398 17.5821 40.1088 17.2805C40.2812 16.9789 40.3674 16.6342 40.3674 16.2464V9.81818ZM43.9034 11.593V9.81818H52.2656V11.593H49.1484V20H47.0206V11.593H43.9034Z" fill="#FFA015"/>
<path d="M13.5 15C13.5 16.3807 12.3807 17.5 11 17.5C9.61929 17.5 8.5 16.3807 8.5 15C8.5 13.6193 9.61929 12.5 11 12.5C12.3807 12.5 13.5 13.6193 13.5 15Z" stroke="#FFA015"/>
</svg>
