<svg width="30" height="30" viewBox="0 0 30 30" fill="none" xmlns="http://www.w3.org/2000/svg">
<path d="M26.7188 17.8126V24.3751C26.7188 24.9967 26.4718 25.5929 26.0323 26.0324C25.5927 26.472 24.9966 26.7189 24.375 26.7189H5.625C5.0034 26.7189 4.40726 26.472 3.96772 26.0324C3.52818 25.5929 3.28125 24.9967 3.28125 24.3751V17.8126C3.28125 17.4397 3.42941 17.082 3.69313 16.8183C3.95685 16.5545 4.31454 16.4064 4.6875 16.4064C5.06046 16.4064 5.41815 16.5545 5.68187 16.8183C5.94559 17.082 6.09375 17.4397 6.09375 17.8126V23.9064H23.9062V17.8126C23.9062 17.4397 24.0544 17.082 24.3181 16.8183C24.5819 16.5545 24.9395 16.4064 25.3125 16.4064C25.6855 16.4064 26.0431 16.5545 26.3069 16.8183C26.5706 17.082 26.7188 17.4397 26.7188 17.8126ZM11.3074 10.3701L13.5938 8.08607V17.8126C13.5938 18.1856 13.7419 18.5433 14.0056 18.807C14.2694 19.0707 14.627 19.2189 15 19.2189C15.373 19.2189 15.7306 19.0707 15.9944 18.807C16.2581 18.5433 16.4062 18.1856 16.4062 17.8126V8.08607L18.6926 10.3736C18.9568 10.6377 19.3151 10.7862 19.6887 10.7862C20.0623 10.7862 20.4206 10.6377 20.6848 10.3736C20.9489 10.1094 21.0974 9.75108 21.0974 9.37748C21.0974 9.00387 20.9489 8.64556 20.6848 8.38138L15.9973 3.69388C15.8666 3.56278 15.7114 3.45876 15.5404 3.38779C15.3695 3.31681 15.1863 3.28027 15.0012 3.28027C14.8161 3.28027 14.6328 3.31681 14.4619 3.38779C14.291 3.45876 14.1357 3.56278 14.0051 3.69388L9.31758 8.38138C9.18677 8.51219 9.08301 8.66748 9.01221 8.83839C8.94142 9.0093 8.90498 9.19248 8.90498 9.37748C8.90498 9.75108 9.0534 10.1094 9.31758 10.3736C9.58176 10.6377 9.94006 10.7862 10.3137 10.7862C10.6873 10.7862 11.0456 10.6377 11.3098 10.3736L11.3074 10.3701Z" fill="white"/>
</svg>
