<svg width="63" height="30" viewBox="0 0 63 30" fill="none" xmlns="http://www.w3.org/2000/svg">
<path d="M10.8892 2.18887C11.7432 1.12141 13.0361 0.5 14.4031 0.5H58C60.4853 0.5 62.5 2.51472 62.5 5V25C62.5 27.4853 60.4853 29.5 58 29.5H14.4031C13.0361 29.5 11.7432 28.8786 10.8892 27.8111L2.88922 17.8111C1.57443 16.1676 1.57443 13.8324 2.88921 12.1889L10.8892 2.18887Z" stroke="#FFA015"/>
<path d="M26.592 12.7464C26.5522 12.3454 26.3815 12.0339 26.0799 11.8118C25.7783 11.5897 25.369 11.4787 24.8519 11.4787C24.5006 11.4787 24.204 11.5284 23.962 11.6278C23.7201 11.724 23.5344 11.8582 23.4052 12.0305C23.2792 12.2029 23.2163 12.3984 23.2163 12.6172C23.2096 12.7995 23.2478 12.9586 23.3306 13.0945C23.4168 13.2304 23.5344 13.348 23.6836 13.4474C23.8327 13.5436 24.0051 13.6281 24.2006 13.701C24.3962 13.7706 24.605 13.8303 24.8271 13.88L25.7418 14.0987C26.186 14.1982 26.5936 14.3307 26.9648 14.4964C27.3361 14.6622 27.6576 14.866 27.9293 15.108C28.2011 15.3499 28.4116 15.6349 28.5607 15.9631C28.7132 16.2912 28.7911 16.6674 28.7944 17.0916C28.7911 17.7147 28.632 18.255 28.3171 18.7124C28.0056 19.1664 27.5548 19.5194 26.9648 19.7713C26.3782 20.0199 25.6706 20.1442 24.842 20.1442C24.02 20.1442 23.3041 20.0182 22.6942 19.7663C22.0877 19.5144 21.6138 19.1416 21.2724 18.6477C20.9343 18.1506 20.757 17.5357 20.7404 16.8033H22.8235C22.8467 17.1446 22.9445 17.4297 23.1168 17.6584C23.2925 17.8838 23.5262 18.0545 23.8178 18.1705C24.1128 18.2831 24.4459 18.3395 24.8171 18.3395C25.1817 18.3395 25.4982 18.2865 25.7667 18.1804C26.0385 18.0743 26.2489 17.9268 26.3981 17.7379C26.5472 17.549 26.6218 17.3319 26.6218 17.0866C26.6218 16.858 26.5539 16.6657 26.418 16.5099C26.2854 16.3542 26.0898 16.2216 25.8313 16.1122C25.5761 16.0028 25.2629 15.9034 24.8917 15.8139L23.783 15.5355C22.9246 15.3267 22.2468 15.0002 21.7496 14.5561C21.2525 14.112 21.0056 13.5137 21.0089 12.7614C21.0056 12.1449 21.1696 11.6063 21.5011 11.1456C21.8358 10.6849 22.2949 10.3253 22.8782 10.0668C23.4615 9.80824 24.1244 9.67898 24.8668 9.67898C25.6225 9.67898 26.2821 9.80824 26.8455 10.0668C27.4123 10.3253 27.8531 10.6849 28.168 11.1456C28.4828 11.6063 28.6452 12.1399 28.6552 12.7464H26.592ZM30.2424 20V9.81818H37.1032V11.593H32.3951V14.0192H36.7502V15.794H32.3951V18.2251H37.123V20H30.2424ZM38.8146 20V9.81818H40.9673V18.2251H45.3324V20H38.8146ZM46.758 20V9.81818H48.9107V18.2251H53.2757V20H46.758Z" fill="#FFA015"/>
<circle cx="11" cy="15" r="2.5" stroke="#FFA015"/>
</svg>
