<svg width="32" height="32" viewBox="0 0 32 32" fill="none" xmlns="http://www.w3.org/2000/svg">
    <path
        d="M19 27.9996C19 28.2648 18.8946 28.5192 18.7071 28.7067C18.5196 28.8942 18.2652 28.9996 18 28.9996H14C13.7348 28.9996 13.4804 28.8942 13.2929 28.7067C13.1053 28.5192 13 28.2648 13 27.9996C13 27.7344 13.1053 27.48 13.2929 27.2925C13.4804 27.105 13.7348 26.9996 14 26.9996H18C18.2652 26.9996 18.5196 27.105 18.7071 27.2925C18.8946 27.48 19 27.7344 19 27.9996ZM16 13.9996C16.2967 13.9996 16.5867 13.9116 16.8333 13.7468C17.08 13.582 17.2723 13.3477 17.3858 13.0736C17.4993 12.7995 17.529 12.4979 17.4712 12.207C17.4133 11.916 17.2704 11.6487 17.0606 11.4389C16.8509 11.2292 16.5836 11.0863 16.2926 11.0284C16.0016 10.9706 15.7001 11.0003 15.426 11.1138C15.1519 11.2273 14.9176 11.4196 14.7528 11.6663C14.588 11.9129 14.5 12.2029 14.5 12.4996C14.5 12.8974 14.658 13.279 14.9393 13.5603C15.2206 13.8416 15.6022 13.9996 16 13.9996ZM27.9525 19.4784L26.4075 26.4321C26.3342 26.7623 26.1783 27.0686 25.9545 27.3222C25.7307 27.5758 25.4462 27.7685 25.1276 27.8822C24.8091 27.996 24.4669 28.0271 24.133 27.9726C23.7992 27.9182 23.4846 27.7799 23.2187 27.5709L19.8137 24.9996H12.1887L8.78124 27.5709C8.51535 27.7799 8.20077 27.9182 7.86693 27.9726C7.53309 28.0271 7.19089 27.996 6.87234 27.8822C6.55379 27.7685 6.26929 27.5758 6.04547 27.3222C5.82164 27.0686 5.66578 26.7623 5.59249 26.4321L4.04749 19.4784C3.98195 19.1799 3.98526 18.8705 4.05717 18.5736C4.12908 18.2766 4.26769 18 4.46249 17.7646L8.03249 13.4821C8.15231 11.9083 8.51362 10.3623 9.10374 8.89836C10.7162 4.85586 13.6037 2.31961 14.775 1.41711C15.1256 1.14546 15.5565 0.998047 16 0.998047C16.4435 0.998047 16.8744 1.14546 17.225 1.41711C18.3925 2.31961 21.2837 4.85586 22.8962 8.89836C23.4864 10.3623 23.8477 11.9083 23.9675 13.4821L27.5375 17.7646C27.7323 18 27.8709 18.2766 27.9428 18.5736C28.0147 18.8705 28.018 19.1799 27.9525 19.4784ZM12.4287 22.9996H19.5712C22.2112 18.3071 22.705 13.8146 21.0387 9.63961C19.5687 5.95461 16.8112 3.62461 16 2.99961C15.1862 3.62461 12.4287 5.95461 10.9587 9.63961C9.29499 13.8146 9.78874 18.3071 12.4287 22.9996ZM10.5537 23.7309C9.2079 21.285 8.39124 18.8813 8.10374 16.5196L5.99999 19.0446L7.54499 25.9996L7.56749 25.9834L10.5537 23.7309ZM26 19.0446L23.8962 16.5196C23.6112 18.8763 22.7962 21.28 21.4512 23.7309L24.4325 25.9809L24.455 25.9971L26 19.0446Z"
        fill="#ffffff" />
</svg>