<svg width="158" height="40" viewBox="0 0 158 40" fill="none" xmlns="http://www.w3.org/2000/svg">
<path fill-rule="evenodd" clip-rule="evenodd" d="M33.1985 18.5892L43.1731 8.81095V38.6781H33.1985V18.5892ZM48.8721 11.4207H67.0764V11.417C71.2272 11.417 74.5999 14.7935 74.5999 18.9404V31.4606C74.5999 35.6113 71.2234 38.9841 67.0764 38.9841H56.3238C51.4064 38.9841 47.4067 34.9844 47.4067 30.067C47.4067 25.1495 51.4064 21.1499 56.3238 21.1499H67.4277V18.9404C67.4277 18.7478 67.2691 18.5892 67.0764 18.5892H48.8721V11.4207ZM67.4277 31.4606V28.3183V28.3145H56.3238C55.3607 28.3145 54.5751 29.1001 54.5751 30.0632C54.5751 31.0263 55.3607 31.8119 56.3238 31.8119H67.0764C67.2691 31.8119 67.4277 31.6532 67.4277 31.4606ZM136.298 20.013C136.298 24.7492 132.446 28.6015 127.71 28.6015L127.714 28.6091H116.47V31.0036C116.47 31.1962 116.625 31.3549 116.821 31.3549H135.743V38.5233H116.821C112.67 38.5233 109.298 35.1468 109.298 30.9998V19.9526C109.298 15.2504 113.124 11.4245 117.826 11.4245H127.71C132.446 11.4245 136.298 15.2769 136.298 20.013ZM127.71 18.5929H117.826C117.078 18.5929 116.466 19.201 116.466 19.9526V21.4331H127.71C128.492 21.4331 129.13 20.7948 129.13 20.013C129.13 19.2312 128.492 18.5929 127.71 18.5929ZM147.191 11.4207C143.044 11.4207 139.667 14.7935 139.667 18.9442V38.7386H146.836V18.9404C146.836 18.7478 146.994 18.5892 147.187 18.5892H158V11.4207H147.191ZM99.2287 11.4207H108.803L96.9815 24.7832L109.547 39.0332H99.9878L92.1925 30.1954L84.3782 39.0332H74.8077L87.4148 24.7794L75.6348 11.4207H85.194L92.2 19.3672L99.2287 11.4207ZM9.97083 26.9171L0 16.6705V38.6781H9.97083V26.9171Z" fill="black"/>
<path d="M34.9357 0.490596L17.3395 17.7469L8.38838 8.50126C7.72744 7.81765 6.63593 7.80254 5.9561 8.46349L1.23884 13.0297C0.555235 13.6906 0.536351 14.7821 1.20107 15.4657L15.9534 30.7052C16.6181 31.3926 17.7134 31.404 18.397 30.7355L41.9418 7.63636C42.6216 6.97164 42.6329 5.88014 41.9644 5.20031L37.368 0.517034C36.7033 -0.162795 35.6118 -0.174126 34.932 0.494373L34.9357 0.490596Z" fill="#FFA015"/>
</svg>
