<svg width="460" height="92" viewBox="0 0 460 92" fill="none" xmlns="http://www.w3.org/2000/svg">
<path d="M0 12C0 5.37259 5.37258 0 12 0H448C454.627 0 460 5.37258 460 12V80C460 86.6274 454.627 92 448 92H12C5.3726 92 0 86.6274 0 80V12Z" fill="#FD9A09"/>
<mask id="mask0_1173_2699" style="mask-type:alpha" maskUnits="userSpaceOnUse" x="0" y="0" width="460" height="82">
<path d="M0 10C0 4.47715 4.47715 0 10 0H450C455.523 0 460 4.47715 460 10V82H0V10Z" fill="#FD9A09"/>
</mask>
<g mask="url(#mask0_1173_2699)">
<g filter="url(#filter0_f_1173_2699)">
<ellipse cx="350.436" cy="-7.5" rx="139.358" ry="78.5" fill="#FFB72C"/>
</g>
</g>
<path fill-rule="evenodd" clip-rule="evenodd" d="M43.8138 33.3345L50.9688 26.3203V47.7448H43.8138V33.3345ZM55.0575 28.1925H68.1159V28.1898C71.0933 28.1898 73.5126 30.6119 73.5126 33.5866V42.5676C73.5126 45.5451 71.0906 47.9644 68.1159 47.9644H60.4027C56.8753 47.9644 54.0063 45.0953 54.0063 41.5679C54.0063 38.0405 56.8753 35.1715 60.4027 35.1715H68.3678V33.5866C68.3678 33.4484 68.254 33.3346 68.1159 33.3346H55.0575V28.1925ZM68.3678 42.5676V40.3136V40.3109H60.4027C59.7119 40.3109 59.1484 40.8744 59.1484 41.5652C59.1484 42.2561 59.7119 42.8196 60.4027 42.8196H68.1159C68.254 42.8196 68.3678 42.7058 68.3678 42.5676ZM117.77 34.3559C117.77 37.7533 115.007 40.5167 111.609 40.5167L111.612 40.5221H103.547V42.2397C103.547 42.3779 103.658 42.4917 103.799 42.4917H117.372V47.6338H103.799C100.821 47.6338 98.4019 45.2118 98.4019 42.237V34.3126C98.4019 30.9396 101.146 28.1952 104.519 28.1952H111.609C115.007 28.1952 117.77 30.9586 117.77 34.3559ZM111.609 33.3373H104.519C103.983 33.3373 103.544 33.7735 103.544 34.3126V35.3746H111.609C112.17 35.3746 112.628 34.9167 112.628 34.3559C112.628 33.7951 112.17 33.3373 111.609 33.3373ZM125.584 28.193C122.609 28.193 120.187 30.6123 120.187 33.5897V47.7887H125.329V33.587C125.329 33.4488 125.443 33.335 125.581 33.335H133.337V28.193H125.584ZM91.1789 28.193H98.0467L89.5669 37.7782L98.5804 48H91.7234L86.1316 41.6605L80.5262 48H73.6611L82.7044 37.7754L74.2544 28.193H81.1114L86.137 33.8931L91.1789 28.193ZM27.1523 39.308L20 31.9579V47.7445H27.1523V39.308Z" fill="white"/>
<path d="M45.0603 20.3519L32.4381 32.7303L26.0173 26.0982C25.5432 25.6078 24.7602 25.597 24.2726 26.0711L20.8887 29.3465C20.3984 29.8206 20.3848 30.6036 20.8617 31.0939L31.4438 42.0256C31.9207 42.5187 32.7063 42.5268 33.1967 42.0473L50.0859 25.4777C50.5736 25.0009 50.5817 24.218 50.1022 23.7303L46.8051 20.3709C46.3282 19.8832 45.5453 19.8751 45.0576 20.3546L45.0603 20.3519Z" fill="white"/>
<mask id="mask1_1173_2699" style="mask-type:alpha" maskUnits="userSpaceOnUse" x="119" y="0" width="220" height="72">
<rect x="119" width="220" height="72" rx="18" fill="#D9D9D9"/>
</mask>
<g mask="url(#mask1_1173_2699)">
<path d="M302.148 -16.2405L239.341 45.648L207.392 12.4891C205.033 10.0374 201.137 9.98323 198.71 12.3537L181.873 28.7299C179.433 31.1003 179.366 35.0149 181.738 37.4666L234.394 92.1219C236.766 94.5871 240.676 94.6277 243.116 92.2302L338.52 -3.38585C340.947 -5.76982 340.987 -9.68441 338.601 -12.1226L322.195 -28.9187C319.822 -31.3569 315.927 -31.3975 313.5 -29L302.148 -16.2405Z" fill="url(#paint0_linear_1173_2699)"/>
</g>
<path d="M0 85C0 77.8203 5.8203 72 13 72H447C454.18 72 460 77.8203 460 85V92H0V85Z" fill="white"/>
<g filter="url(#filter1_d_1173_2699)">
<path d="M418.012 28C417.756 28 417.488 28.086 417.293 28.281C416.902 28.672 416.902 29.328 417.293 29.719L423.574 36L417.293 42.281C416.902 42.672 416.902 43.328 417.293 43.719C417.683 44.109 418.34 44.109 418.73 43.719L425.012 37.438L431.293 43.719C431.683 44.109 432.34 44.109 432.73 43.719C433.121 43.328 433.121 42.672 432.73 42.281L426.449 36L432.73 29.719C433.121 29.328 433.121 28.672 432.73 28.281C432.535 28.086 432.267 28 432.012 28C431.756 28 431.488 28.086 431.293 28.281L425.012 34.562L418.73 28.281C418.535 28.086 418.268 28 418.012 28Z" fill="white"/>
</g>
<defs>
<filter id="filter0_f_1173_2699" x="111.078" y="-186" width="478.716" height="357" filterUnits="userSpaceOnUse" color-interpolation-filters="sRGB">
<feFlood flood-opacity="0" result="BackgroundImageFix"/>
<feBlend mode="normal" in="SourceGraphic" in2="BackgroundImageFix" result="shape"/>
<feGaussianBlur stdDeviation="50" result="effect1_foregroundBlur_1173_2699"/>
</filter>
<filter id="filter1_d_1173_2699" x="413" y="26" width="24.0234" height="24.0117" filterUnits="userSpaceOnUse" color-interpolation-filters="sRGB">
<feFlood flood-opacity="0" result="BackgroundImageFix"/>
<feColorMatrix in="SourceAlpha" type="matrix" values="0 0 0 0 0 0 0 0 0 0 0 0 0 0 0 0 0 0 127 0" result="hardAlpha"/>
<feOffset dy="2"/>
<feGaussianBlur stdDeviation="2"/>
<feComposite in2="hardAlpha" operator="out"/>
<feColorMatrix type="matrix" values="0 0 0 0 0.982568 0 0 0 0 0.597903 0 0 0 0 0 0 0 0 0.5 0"/>
<feBlend mode="normal" in2="BackgroundImageFix" result="effect1_dropShadow_1173_2699"/>
<feBlend mode="normal" in="SourceGraphic" in2="effect1_dropShadow_1173_2699" result="shape"/>
</filter>
<linearGradient id="paint0_linear_1173_2699" x1="243" y1="75" x2="234.765" y2="-1.97482" gradientUnits="userSpaceOnUse">
<stop stop-color="white" stop-opacity="0.2"/>
<stop offset="1" stop-color="white" stop-opacity="0"/>
</linearGradient>
</defs>
</svg>
