<svg width="125" height="44" viewBox="0 0 125 44" fill="none" xmlns="http://www.w3.org/2000/svg">
<path fill-rule="evenodd" clip-rule="evenodd" d="M49.7495 21.6257H41.5208C41.6175 21.8037 41.7094 21.9763 41.7992 22.1449L41.7993 22.1451C41.9755 22.4758 42.1434 22.7909 42.3221 23.1005L42.7824 23.9002L42.7826 23.9005L42.7826 23.9006C43.6193 25.3545 44.4562 26.8088 45.3108 28.2499C45.4575 28.4582 45.5362 28.7068 45.5362 28.9615C45.5362 29.2163 45.4575 29.4648 45.3108 29.6731C44.7111 30.6584 44.1375 31.6668 43.5642 32.6746C43.2985 33.1416 43.033 33.6084 42.7649 34.0728C42.458 34.6042 42.425 34.6021 42.147 34.0996L32.0006 16.4887C31.7288 16.0191 31.7452 15.982 32.2746 15.982C36.8514 15.993 41.4274 16.0019 46.0028 16.0087C46.2063 15.9939 46.4096 16.0408 46.586 16.1433C46.7624 16.2458 46.9037 16.3992 46.9915 16.5834C47.5852 17.6491 48.1992 18.7062 48.8127 19.7625L48.8128 19.7626L48.813 19.763L48.813 19.763L48.813 19.763C49.0508 20.1724 49.2886 20.5817 49.525 20.9913C49.655 21.179 49.7325 21.398 49.7495 21.6257ZM34.4257 5.04227L34.4257 5.04226L34.4258 5.04224C35.4051 3.40558 36.3885 1.76212 37.2693 0.0190745C36.737 0.0190745 36.2109 0.0206111 35.6894 0.022134C34.2999 0.0261918 32.9436 0.0301528 31.5927 0.00469249C31.339 -0.0173583 31.0846 0.0386582 30.8637 0.165309C30.6428 0.291959 30.4659 0.483173 30.3568 0.713234C28.2092 4.45374 26.0602 8.19424 23.9098 11.9347C23.8083 12.1153 23.7098 12.2958 23.6077 12.483L23.6074 12.4836L23.607 12.4843L23.6067 12.4848L23.6065 12.4852L23.6064 12.4854L23.6057 12.4866C23.522 12.6401 23.4358 12.7982 23.3434 12.9646C23.449 12.9748 23.5474 12.9866 23.6409 12.9978C23.83 13.0205 23.9991 13.0408 24.1673 13.0408C30.7997 13.0559 37.4321 13.0676 44.0645 13.0759C44.7936 13.0759 44.8554 12.9687 44.4908 12.3137C44.1325 11.6721 43.7719 11.0325 43.4111 10.3927L43.4111 10.3926L43.411 10.3925L43.411 10.3924L43.4109 10.3924C42.9401 9.55733 42.4691 8.72187 42.0026 7.88112C41.9201 7.69534 41.7812 7.5403 41.6056 7.4379C41.43 7.33549 41.2266 7.2909 41.0243 7.31057C39.4627 7.31881 37.9066 7.31606 36.3517 7.31331H36.3516H36.3515H36.3514H36.3513C35.5744 7.31194 34.7979 7.31057 34.0211 7.31057C33.7258 7.34082 33.4276 7.30208 33.1498 7.19732C33.5684 6.47508 33.9967 5.75933 34.4257 5.04227ZM12.3192 11.4479L12.3198 11.4489C12.6718 12.0663 13.0239 12.6838 13.3782 13.2999C14.1376 14.6168 14.8997 15.931 15.6645 17.2423C15.8594 17.5857 16.0679 17.9229 16.2909 18.2837L16.2916 18.2849C16.356 18.389 16.4216 18.495 16.4884 18.6038L17.2773 17.3968C17.3283 17.1901 17.4494 17.0209 17.5708 16.8512C17.6357 16.7606 17.7007 16.6697 17.7552 16.5729C18.4722 15.3143 19.194 14.0587 19.9156 12.8035L19.9161 12.8026L19.9166 12.8017L19.9171 12.8008L19.9176 12.8C20.3644 12.0227 20.8112 11.2455 21.2567 10.4678C23.1366 7.18729 25.0117 3.90335 26.8819 0.615985C27.1991 0.0598528 27.1662 0.0206894 26.5482 0.0206894C26.0369 0.0200557 25.5255 0.0217601 25.0142 0.0234645C23.8633 0.0273005 22.7125 0.0311364 21.5616 0.0083188C21.2903 -0.0167782 21.0178 0.0428838 20.7817 0.178992C20.5457 0.315101 20.3576 0.521056 20.2433 0.768455C19.4034 2.26896 18.5454 3.76039 17.6866 5.25303L17.6865 5.25332C17.4608 5.64562 17.235 6.038 17.0095 6.43066C16.8519 6.75636 16.6517 7.0597 16.4143 7.3328L12.2948 0.166924C12.2338 0.261692 12.1731 0.352802 12.1136 0.442116L12.1135 0.442176L12.1135 0.442217L12.1134 0.442375C12.0061 0.603384 11.9027 0.75856 11.8087 0.918813C11.5721 1.32502 11.341 1.73423 11.11 2.14339C10.6005 3.04544 10.0912 3.94721 9.52441 4.81584C9.06715 5.5244 9.16396 6.04346 9.5759 6.72524C10.5151 8.28369 11.4171 9.86558 12.3192 11.4479ZM35.091 28.0592C34.4811 26.9817 33.8683 25.899 33.1818 24.8353L22.4401 43.4513H23.0787C23.6671 43.4513 24.2555 43.4488 24.8439 43.4463C26.0207 43.4412 27.1975 43.4362 28.3743 43.4513C28.5681 43.4702 28.7629 43.4282 28.9316 43.3311C29.1004 43.234 29.2346 43.0867 29.3156 42.9096C30.4135 40.9708 31.534 39.0407 32.6531 37.1128L32.6532 37.1127L32.6537 37.1117L32.9552 36.5924C32.9772 36.5548 32.9963 36.5148 33.0156 36.4745L33.0156 36.4744C33.0756 36.3489 33.1371 36.2202 33.293 36.1516L37.3878 43.2762C37.5297 43.2181 37.5997 43.1007 37.6679 42.9862C37.6867 42.9545 37.7055 42.923 37.7256 42.8931C38.3131 42.003 38.8287 41.0716 39.3442 40.1404L39.3443 40.1403C39.6745 39.5437 40.0047 38.9472 40.3538 38.3617C40.4742 38.1861 40.5386 37.9782 40.5386 37.7654C40.5386 37.5525 40.4742 37.3446 40.3538 37.1691C39.3032 35.3746 38.2653 33.5751 37.2274 31.7755L37.2268 31.7745L37.2265 31.774C36.7588 30.9632 36.2912 30.1524 35.8224 29.342C35.5761 28.9163 35.3338 28.4883 35.0911 28.0595L35.091 28.0593L35.091 28.0592ZM15.9406 23.6961C16.0816 24.136 16.3191 24.5209 16.5574 24.907L16.5574 24.9071C16.6672 25.085 16.7771 25.263 16.8777 25.4469C17.162 25.9721 17.4668 26.4871 17.782 26.9938C18.0065 27.3542 17.9179 27.4511 17.5121 27.447C16.2901 27.4387 15.069 27.4415 13.8475 27.4442C13.2367 27.4456 12.6258 27.447 12.0147 27.447C11.3154 27.447 10.6172 27.4461 9.91951 27.4453L9.91666 27.4453H9.91658C7.94366 27.4429 5.97567 27.4405 4.00431 27.4572C3.72468 27.4826 3.44401 27.4213 3.20044 27.2816C2.95686 27.142 2.76217 26.9307 2.6428 26.6766C2.03568 25.5732 1.40581 24.4824 0.775909 23.3914L0.775612 23.3909L0.774822 23.3895C0.516079 22.9414 0.257328 22.4933 0.000152588 22.0442C0.0948982 21.8721 0.241695 21.8913 0.38208 21.9096C0.424812 21.9151 0.466949 21.9206 0.506844 21.9206H5.13305H8.2412C7.2999 20.2316 6.41215 18.6559 5.45643 17.1194C5.10627 16.5014 4.76229 15.9 4.40184 15.2986C4.25541 15.0853 4.17247 14.8348 4.16262 14.5763C4.15278 14.3179 4.21644 14.0619 4.34622 13.8381C5.16304 12.4135 5.99562 10.9976 6.82781 9.58232L7.03831 9.22431C7.11056 9.12422 7.19043 9.02986 7.27724 8.9421L9.87871 13.2985L12.2536 17.4881C12.2724 17.5264 12.2995 17.5599 12.333 17.5863C12.3666 17.6127 12.4056 17.6312 12.4472 17.6404C12.5013 17.9974 12.6957 18.2825 12.8904 18.568C12.9551 18.6629 13.0199 18.758 13.0796 18.8557L13.3966 19.41L13.3978 19.4122C14.1009 20.6416 14.8037 21.8705 15.5142 23.0946C15.5485 23.1507 15.5779 23.2118 15.6076 23.2736C15.685 23.4347 15.765 23.6008 15.9406 23.6961ZM15.6787 36.1475H16.6468L12.7456 42.9364C12.4758 43.4102 12.482 43.4287 13.0319 43.4287C13.7656 43.4331 14.5011 43.4316 15.2374 43.43C16.2498 43.428 17.2636 43.4259 18.276 43.439C18.4704 43.4521 18.6642 43.4055 18.8313 43.3053C18.9984 43.2052 19.131 43.0564 19.2112 42.8788C21.319 39.2317 23.4254 35.5852 25.5305 31.9394C25.7 31.6472 25.8566 31.3487 26.0175 31.0418C26.0972 30.89 26.1779 30.7361 26.2617 30.58C26.2105 30.575 26.1719 30.5703 26.1407 30.5665C26.0954 30.5609 26.0656 30.5573 26.0351 30.5573C19.1459 30.5683 12.2568 30.5683 5.3676 30.5573C4.8676 30.5573 4.99559 30.7598 5.12361 30.9624C5.14167 30.991 5.15974 31.0196 5.17604 31.0476C5.45983 31.5351 5.74653 32.021 6.03326 32.5069C6.61642 33.4953 7.19973 34.4838 7.75896 35.4863C7.8673 35.7168 8.04417 35.9081 8.26538 36.0342C8.48659 36.1602 8.74134 36.2149 8.99481 36.1908C10.7282 36.1667 12.4603 36.1601 14.1931 36.1536C14.6882 36.1517 15.1834 36.1498 15.6787 36.1475Z" fill="#1A77F2"/>
<path d="M113.044 13.0556C114.073 12.9693 115.102 12.8909 116.137 12.9314C117.53 12.985 118.914 13.1034 120.244 13.5677C121.81 14.1144 123.095 15.0115 123.676 16.6313C124.288 18.3348 124.391 20.0553 123.475 21.7117C122.949 22.6625 122.095 23.2242 121.121 23.6316C121.096 23.642 121.067 23.648 121.037 23.6542C120.951 23.6721 120.86 23.6909 120.86 23.82C120.86 23.96 120.957 23.9696 121.047 23.9784C121.076 23.9812 121.104 23.9839 121.128 23.9906C122.086 24.2667 122.937 24.8282 123.568 25.6003C124.199 26.3724 124.579 27.3185 124.659 28.3125C124.756 29.4863 124.659 30.6391 124.208 31.7397C123.646 33.113 122.597 34.0036 121.283 34.617L120.931 34.7811L120.678 34.8831L120.286 35.0054C117.512 35.8104 114.677 35.7516 111.838 35.5789C111.398 35.5523 110.961 35.485 110.523 35.4176C110.294 35.3822 110.064 35.3468 109.834 35.3174C109.686 35.2984 109.638 35.2317 109.638 35.0826C109.643 33.5256 109.646 31.9686 109.638 30.4116C109.638 30.1895 109.749 30.2124 109.864 30.236C109.872 30.2377 109.88 30.2394 109.888 30.241C109.895 30.2424 109.902 30.2437 109.909 30.2448C110.127 30.2826 110.344 30.3252 110.561 30.3678C110.984 30.4507 111.407 30.5336 111.833 30.5803C113.435 30.7555 115.044 30.8876 116.633 30.492C117.854 30.1886 118.446 29.2188 118.203 27.9953C118.08 27.3688 117.669 26.9941 117.11 26.7528C116.378 26.439 115.598 26.3507 114.816 26.3167C113.99 26.2815 113.161 26.2823 112.334 26.2831L112.14 26.2833C111.929 26.2833 111.865 26.2277 111.867 26.01C111.877 24.6707 111.877 23.3315 111.867 21.9922C111.867 21.7804 111.922 21.7169 112.139 21.7176C112.398 21.7176 112.656 21.7201 112.915 21.7226C113.701 21.7303 114.486 21.7379 115.272 21.6744C115.295 21.6725 115.319 21.6706 115.343 21.6688L115.39 21.6651C116.065 21.612 116.744 21.5586 117.315 21.1186C117.95 20.6301 118.022 19.9494 117.933 19.2333C117.855 18.6225 117.462 18.2524 116.9 18.0445C116.093 17.743 115.244 17.7319 114.395 17.743C113.122 17.7649 111.857 17.9499 110.631 18.2936C110.374 18.3636 110.304 18.3315 110.304 18.0484C110.318 16.6533 110.318 15.2598 110.304 13.8678C110.304 13.6494 110.377 13.5749 110.571 13.5154C110.839 13.4325 111.114 13.385 111.389 13.3377C111.637 13.295 111.885 13.2523 112.127 13.1838L112.154 13.1839C112.282 13.1842 112.411 13.1845 112.528 13.1184L112.712 13.1034L112.843 13.0968C112.877 13.1047 112.913 13.1051 112.948 13.098C112.982 13.0909 113.015 13.0765 113.044 13.0556Z" fill="#1A77F2"/>
<path d="M78.0214 26.6365L78.0253 29.3791L78.0214 30.1657C78.0179 30.5978 78.0162 31.0318 78.0162 31.4677L78.0207 32.7148L78.0148 35.0611C78.0031 35.2899 78.092 35.3651 78.3372 35.3651C79.8739 35.3526 81.411 35.3501 82.9481 35.3475C83.4211 35.3467 83.8941 35.3459 84.3671 35.3449L84.3756 35.3311C84.3751 35.0009 84.3718 34.6705 84.3685 34.34C84.3595 33.4504 84.3506 32.5597 84.3959 31.6691C84.3966 31.6532 84.3977 31.6373 84.3987 31.6215C84.4006 31.5939 84.4024 31.5661 84.4024 31.5383C84.3987 31.3908 84.394 31.2427 84.3893 31.0944C84.3786 30.7537 84.3678 30.4117 84.3678 30.0709V13.6344C84.3678 13.5446 84.3644 13.4547 84.361 13.3649L84.361 13.3647L84.3609 13.3635C84.3594 13.323 84.3579 13.2825 84.3567 13.2421C83.8854 13.2417 83.414 13.2418 82.9427 13.2419C81.4343 13.242 79.9258 13.2422 78.4177 13.2303C78.1188 13.2277 78.0253 13.2819 78.0253 13.6089C78.0355 16.8935 78.0346 20.1781 78.0337 23.4627C78.0334 24.4011 78.0332 25.3396 78.0332 26.2781C78.0332 26.3581 78.0297 26.4381 78.0262 26.5179C78.0244 26.5575 78.0227 26.597 78.0214 26.6365Z" fill="#1A77F2"/>
<path fill-rule="evenodd" clip-rule="evenodd" d="M100.497 13.4395L99.2485 13.3087C99.1186 13.3023 98.9888 13.294 98.8588 13.2857C98.6195 13.2704 98.3798 13.255 98.1387 13.2512C94.9637 13.2455 91.7889 13.2407 88.6143 13.2368C88.6127 13.2761 88.6108 13.3153 88.6089 13.3545C88.6044 13.4461 88.5999 13.5376 88.5999 13.6292V23.2256C88.606 27.1417 88.6034 31.0581 88.592 34.9747C88.5914 35.2808 88.681 35.3462 88.972 35.3462C90.4455 35.3364 91.919 35.3371 93.3924 35.3379C93.7892 35.3381 94.1859 35.3383 94.5827 35.3383C94.6644 35.3383 94.7458 35.3315 94.8273 35.3247C94.8645 35.3216 94.9018 35.3185 94.9391 35.3161V34.2391C94.9439 32.64 94.9489 31.0413 94.9541 29.4431C94.9404 29.3987 94.9495 29.3666 95.0058 29.3712C95.4199 29.3345 95.8345 29.3398 96.2492 29.3451C96.4854 29.3481 96.7216 29.3511 96.9578 29.3464C98.6632 29.3124 100.359 29.2535 102.017 28.75C104.054 28.1307 105.383 26.8222 105.896 24.7767C106.552 22.1688 106.548 19.5518 105.719 16.9655C105.532 16.5575 105.343 16.1481 105.065 15.7884C104.532 15.0547 103.832 14.5375 103.01 14.1647C102.206 13.8005 101.354 13.6128 100.497 13.4395ZM94.9548 23.8318V22.7129C94.9513 21.2533 94.9463 19.7944 94.9397 18.3362L94.9397 18.3226C94.9394 18.214 94.9392 18.1225 95.1006 18.1262C95.3482 18.1316 95.5965 18.1294 95.8449 18.1271C96.4676 18.1215 97.0909 18.1159 97.7052 18.2309C99.0399 18.4794 99.5565 19.0077 99.7978 20.3666C99.9167 21.0549 99.9032 21.7596 99.7579 22.4428C99.561 23.3989 98.9372 23.9403 97.9975 24.143C97.1732 24.3211 96.3387 24.3059 95.5058 24.2908C95.372 24.2884 95.2382 24.2859 95.1045 24.2843C94.8798 24.2817 94.9102 24.1512 94.9411 24.019C94.9568 23.9515 94.9727 23.8835 94.9548 23.8318Z" fill="#1A77F2"/>
<path fill-rule="evenodd" clip-rule="evenodd" d="M69.7871 12.9313C69.7993 12.9307 69.8115 12.9302 69.8237 12.9296C69.8575 12.9279 69.8913 12.9263 69.9255 12.9263C70.3769 12.9263 70.8283 12.9273 71.2797 12.9283C72.3979 12.9308 73.5161 12.9333 74.6341 12.9205C75.125 12.9149 75.4411 13.3286 75.2706 13.8187C75.0819 14.3623 74.8992 14.9071 74.7165 15.452L74.7163 15.4525L74.715 15.4564L74.7145 15.458L74.7141 15.459L74.714 15.4594C74.6371 15.6887 74.5601 15.9181 74.4827 16.1474C74.4175 16.3406 74.3525 16.5339 74.2875 16.7272L74.2874 16.7274C74.0874 17.3221 73.8874 17.917 73.6802 18.508C73.646 18.6057 73.6152 18.7047 73.5844 18.8036C73.5257 18.992 73.467 19.1804 73.3849 19.3606C73.3796 19.3363 73.3796 19.3112 73.3797 19.2861C73.3798 19.2468 73.3799 19.2075 73.3589 19.171C73.1429 18.7932 72.9244 18.4168 72.7033 18.042C72.6503 17.9513 72.5999 17.8593 72.5495 17.7674C72.446 17.5786 72.3426 17.3901 72.2174 17.2143C72.2012 17.1915 72.1856 17.1684 72.1704 17.145C72.1855 17.1684 72.201 17.1915 72.2171 17.2143C72.3412 17.3884 72.4437 17.5755 72.5462 17.7625C72.5976 17.8562 72.649 17.9499 72.7031 18.042C72.9234 18.4168 73.1419 18.7932 73.3587 19.171C73.3796 19.2075 73.3795 19.2468 73.3794 19.2861C73.3793 19.3112 73.3793 19.3362 73.3847 19.3606C73.2989 19.6227 73.2134 19.8848 73.1281 20.1468C73.1246 20.1576 73.1181 20.1673 73.1095 20.1747C73.101 20.182 73.0908 20.187 73.0798 20.189C73.0836 20.2481 73.0756 20.3073 73.0562 20.3632C72.9823 20.5702 72.9106 20.7772 72.8391 20.9836C72.8074 21.075 72.7758 21.1663 72.744 21.2573L72.7366 21.285C72.7299 21.303 72.723 21.321 72.7161 21.339C72.6176 21.6688 72.5124 21.9948 72.3859 22.3136C72.3796 22.2147 72.3309 22.1331 72.2828 22.0523C72.2724 22.0348 72.2619 22.0174 72.252 21.9998C72.1826 21.8774 72.1136 21.7548 72.0447 21.6322L72.0436 21.6303L72.0432 21.6297C71.8272 21.2457 71.6111 20.8616 71.3822 20.4855C71.2084 20.1994 71.0388 19.9102 70.8764 19.6185C70.7244 19.3462 70.5677 19.0768 70.4109 18.8073C70.314 18.6409 70.2171 18.4745 70.1214 18.3073C69.9166 17.9492 69.7085 17.5928 69.5005 17.2365L69.4998 17.2353C69.3638 17.0024 69.2278 16.7695 69.0928 16.5363C68.9815 16.3439 68.8722 16.1505 68.7629 15.957C68.7032 15.8512 68.6434 15.7455 68.5834 15.6399L68.5741 15.6235L68.5828 15.6394C68.6428 15.7447 68.7024 15.8503 68.7621 15.9559L68.7624 15.9565C68.8717 16.1499 68.981 16.3434 69.0923 16.5357C69.2332 16.7794 69.3751 17.0226 69.5171 17.2658C69.7194 17.6123 69.9217 17.9588 70.1209 18.3068C70.2166 18.4739 70.3134 18.6403 70.4103 18.8067C70.5671 19.0761 70.7239 19.3456 70.8758 19.618C71.0382 19.9096 71.2079 20.1991 71.3817 20.485C71.612 20.8643 71.8294 21.2504 72.0468 21.6367L72.0477 21.6381C72.1154 21.7585 72.1833 21.879 72.2514 21.9992C72.2617 22.0175 72.2725 22.0357 72.2833 22.054C72.3309 22.134 72.3791 22.2153 72.3854 22.3131C72.3865 22.3172 72.3865 22.3215 72.3854 22.3256C72.3844 22.3297 72.3822 22.3335 72.3793 22.3366C72.3705 22.3435 72.3639 22.3526 72.3601 22.3631C72.3562 22.3736 72.3554 22.3849 72.3577 22.3958C72.3587 22.4 72.3587 22.4044 72.3576 22.4085C72.3565 22.4127 72.3543 22.4165 72.3513 22.4196L72.3275 22.4691C72.1445 23.025 71.9613 23.581 71.7779 24.137C71.7674 24.1709 71.7534 24.2033 71.7393 24.2359C71.7335 24.2494 71.7276 24.2629 71.7221 24.2765C71.6216 24.5931 71.5124 24.9069 71.4032 25.2206C71.3693 25.3181 71.3354 25.4156 71.3017 25.5132C71.2018 25.8024 71.1052 26.0943 71.018 26.3899C71.0006 26.4651 70.9676 26.5359 70.921 26.5975L70.922 26.598C70.9275 26.6115 70.9295 26.6261 70.928 26.6406C70.9266 26.655 70.9215 26.6689 70.9134 26.681C70.9101 26.6889 70.9067 26.6968 70.9032 26.7047L70.8971 26.7184C70.798 27.0529 70.6893 27.3834 70.5617 27.7071L70.5476 27.7625C70.546 27.7656 70.5445 27.7687 70.543 27.7718L70.5387 27.7806L70.5366 27.7849L70.534 27.7902C70.5352 27.7946 70.5353 27.7993 70.5341 27.8038C70.5331 27.8082 70.5309 27.8123 70.5279 27.8156C70.5299 27.8258 70.5291 27.8364 70.5254 27.8461C70.5215 27.8562 70.5148 27.8649 70.5061 27.8712L70.5057 27.8689L70.5056 27.868C70.5054 27.8671 70.5053 27.8661 70.5052 27.8652C70.5051 27.8638 70.5051 27.8624 70.505 27.861C70.505 27.8648 70.5053 27.8688 70.5061 27.8726L70.4996 27.8997C70.5015 27.9097 70.5006 27.9201 70.497 27.9296C70.4932 27.9394 70.4868 27.948 70.4784 27.9543C70.4778 27.951 70.4775 27.9477 70.4775 27.9444C70.4774 27.9481 70.4777 27.9519 70.4784 27.9556C70.4775 27.9594 70.4765 27.9632 70.4756 27.9669C70.4742 27.972 70.4729 27.9772 70.4716 27.9827C70.4736 27.9927 70.4727 28.003 70.4691 28.0126C70.4655 28.0224 70.4591 28.031 70.4507 28.0373C70.4502 28.034 70.4499 28.0307 70.4499 28.0273C70.4498 28.0311 70.4501 28.0349 70.4507 28.0387C70.4364 28.0839 70.4221 28.1291 70.4078 28.1744L70.4077 28.1745C70.2831 28.5688 70.1585 28.9628 69.9828 29.3393C69.8364 29.6528 69.3715 29.6833 69.1495 29.5037C69.0427 29.4154 68.9641 29.2977 68.9235 29.1652C68.4763 27.8585 68.028 26.552 67.5788 25.2456C67.4803 24.9586 67.3821 24.6714 67.2839 24.3843L67.2838 24.3841C67.0384 23.6666 66.793 22.949 66.5436 22.2331C66.4752 22.0372 66.4605 21.8506 66.5283 21.6542C66.5756 21.5171 66.6167 21.3794 66.6578 21.2417C66.6756 21.182 66.6935 21.1222 66.7118 21.0625C66.8016 21.0799 66.8335 21.1501 66.8643 21.2179C66.8708 21.2323 66.8773 21.2465 66.8842 21.2601C67.0161 21.5187 67.1632 21.7685 67.3102 22.0183L67.3106 22.0189C67.4078 22.1841 67.5051 22.3493 67.5979 22.517C67.6902 22.6838 67.7875 22.8478 67.8848 23.0118L67.885 23.0121C67.9814 23.1745 68.0778 23.337 68.1694 23.5022C68.2484 23.6457 68.3317 23.7868 68.4151 23.928C68.5066 24.0831 68.5983 24.2383 68.6844 24.3969C68.8309 24.6666 68.9879 24.9308 69.1449 25.1949L69.1457 25.1962C69.2275 25.3337 69.3092 25.4712 69.3895 25.6095C69.6149 25.998 69.8392 26.3873 70.0622 26.7773L70.1033 26.8485C70.2477 27.0983 70.3924 27.3488 70.5168 27.6103C70.3967 27.3577 70.2578 27.1152 70.1191 26.8732C70.1006 26.8409 70.0821 26.8085 70.0636 26.7762C69.8396 26.3866 69.6154 25.9973 69.3909 25.6084C69.3118 25.4724 69.2314 25.337 69.151 25.2017L69.1504 25.2007C68.992 24.9341 68.8336 24.6676 68.6857 24.3957C68.5992 24.2364 68.5072 24.0804 68.4151 23.9244L68.415 23.9242C68.3323 23.784 68.2494 23.6437 68.1707 23.5011C68.0784 23.3342 67.981 23.17 67.8836 23.0059C67.7872 22.8435 67.6908 22.6811 67.5993 22.5159C67.5064 22.348 67.409 22.1826 67.3116 22.0172L67.3114 22.0168C67.1644 21.7672 67.0174 21.5174 66.8856 21.259C66.8786 21.2454 66.8722 21.2312 66.8657 21.2168C66.8349 21.149 66.803 21.0788 66.7132 21.0614C66.8026 20.6986 66.9113 20.3419 67.0259 19.9855C67.0325 19.9844 67.0386 19.984 67.0444 19.9842C67.0382 19.984 67.0316 19.9844 67.0245 19.9855C67.039 19.86 67.0778 19.7409 67.1166 19.6218L67.1168 19.6214C67.1327 19.5726 67.1487 19.5236 67.1629 19.4743C67.3066 18.9714 67.4546 18.4698 67.6025 17.9682C67.6508 17.8043 67.6992 17.6405 67.7473 17.4766C67.7549 17.4549 67.7637 17.4337 67.7736 17.4129C67.9256 16.8888 68.0776 16.3646 68.2294 15.8403C68.2582 15.7416 68.2888 15.6433 68.3195 15.545L68.3196 15.5447C68.3326 15.5031 68.3455 15.4615 68.3584 15.4199L68.3593 15.4192C68.4621 15.04 68.5652 14.6604 68.691 14.2872C68.7287 14.2967 68.7596 14.3125 68.7857 14.3325C68.7591 14.3117 68.7275 14.2953 68.6888 14.2856C68.7139 14.1977 68.7388 14.1097 68.7638 14.0218L68.764 14.0211C68.829 13.792 68.894 13.5628 68.9614 13.3342C68.9707 13.302 68.9893 13.2725 69.0078 13.2431C69.0163 13.2297 69.0247 13.2163 69.0322 13.2027C69.1324 13.0258 69.2952 12.9489 69.4874 12.9296C69.557 12.9226 69.6276 12.9255 69.6983 12.9284C69.7277 12.9296 69.7572 12.9308 69.7866 12.9313C69.8339 13.0977 69.9234 13.2443 70.012 13.3892C70.0302 13.419 70.0484 13.4488 70.0661 13.4786C70.1439 13.6098 70.2182 13.7427 70.2925 13.8755C70.3749 14.0228 70.4573 14.1701 70.5443 14.3149C70.5973 14.4032 70.6511 14.4912 70.7048 14.5792L70.7049 14.5794C70.8615 14.8356 71.018 15.0918 71.1572 15.3571C71.3566 15.7369 71.5774 16.1044 71.7975 16.4707L71.8073 16.487C71.8563 16.5684 71.9008 16.6523 71.9445 16.7365C71.9009 16.6523 71.8565 16.5684 71.8076 16.487L71.7978 16.4707C71.5777 16.1044 71.3569 15.7369 71.1575 15.3571C71.0183 15.0918 70.8617 14.8356 70.7052 14.5794L70.7051 14.5792C70.6514 14.4913 70.5976 14.4032 70.5446 14.3149C70.457 14.1698 70.3745 14.022 70.292 13.8743C70.218 13.7418 70.1439 13.6092 70.0664 13.4786C70.0484 13.4484 70.03 13.4182 70.0116 13.388C69.9234 13.2434 69.8343 13.0972 69.7871 12.9313ZM68.4807 15.4632L68.4727 15.4501C68.4696 15.4454 68.4665 15.441 68.4632 15.4367C68.4663 15.4408 68.4692 15.4451 68.4721 15.4495C68.475 15.4541 68.4779 15.4586 68.4807 15.4632ZM68.774 18.9936C68.569 18.6433 68.364 18.2929 68.1602 17.9421C68.3451 18.26 68.5311 18.5778 68.7171 18.8956L68.7186 18.8982L68.7188 18.8985L68.7192 18.8992C68.9452 19.2855 69.1714 19.672 69.3958 20.0591C69.1898 19.7043 68.9823 19.3497 68.7748 18.995L68.7744 18.9943L68.774 18.9936Z" fill="#1A77F2"/>
<path fill-rule="evenodd" clip-rule="evenodd" d="M68.1018 33.2653L68.096 33.2376C68.0284 33.0208 67.961 32.8039 67.8936 32.5869L67.8934 32.5865C67.7509 32.1277 67.6081 31.6682 67.4626 31.2075C67.2028 30.3886 66.9429 29.5695 66.6827 28.7504C66.6773 28.7365 66.6721 28.7225 66.6668 28.7085L66.6625 28.697L66.6567 28.6711L66.6576 28.6718C66.6597 28.6616 66.6589 28.651 66.6553 28.6412C66.6517 28.6314 66.6454 28.6228 66.6371 28.6165C66.635 28.6264 66.6357 28.6368 66.6391 28.6464C66.6386 28.6453 66.6381 28.6441 66.6377 28.643C66.634 28.6332 66.6333 28.6225 66.6354 28.6123C66.6307 28.5946 66.626 28.5758 66.6216 28.557L66.6086 28.5293C66.6065 28.5203 66.6044 28.5113 66.6022 28.5023C66.6001 28.4933 66.5979 28.4843 66.5959 28.4753L66.5817 28.4446L66.5799 28.4366C66.5767 28.4221 66.5733 28.4074 66.5698 28.3929L66.5549 28.3594C66.553 28.3513 66.5511 28.3431 66.5493 28.335L66.5492 28.3348L66.5492 28.3345C66.5473 28.3264 66.5455 28.3182 66.5435 28.3101L66.5278 28.2742C66.5242 28.2584 66.5206 28.2426 66.5167 28.2271L66.4968 28.1737L66.4903 28.1448L66.4918 28.146C66.494 28.1358 66.4932 28.1252 66.4895 28.1154C66.4859 28.1056 66.4796 28.097 66.4713 28.0907C66.4692 28.1009 66.4699 28.1115 66.4736 28.1213C66.4757 28.1271 66.4788 28.1324 66.4826 28.1371C66.478 28.132 66.4743 28.1259 66.4719 28.1194C66.4683 28.1096 66.4675 28.099 66.4697 28.0887L66.4643 28.0647L66.4655 28.0649C66.4677 28.0547 66.4669 28.0441 66.4633 28.0343C66.4596 28.0245 66.4533 28.016 66.445 28.0096C66.4223 28.0287 66.4187 28.041 66.4261 28.0495C66.4167 28.0411 66.4191 28.0281 66.4434 28.0071L66.4301 27.9518L66.416 27.9208C66.4183 27.9171 66.419 27.9127 66.4181 27.9084C66.4173 27.9045 66.415 27.901 66.4118 27.8987L66.4127 27.8989L66.4099 27.887C66.4081 27.8791 66.4063 27.8712 66.4046 27.8633L66.4045 27.8631C66.3981 27.8343 66.3918 27.8057 66.3828 27.7771C65.9001 26.244 65.4167 24.7119 64.9324 23.1806C64.8074 22.7855 64.6806 22.3908 64.5539 21.9962L64.5538 21.9959L64.5518 21.9897C64.4937 21.8087 64.4356 21.6277 64.3777 21.4467L64.3778 21.4469C64.3795 21.4441 64.3825 21.4386 64.3825 21.4386C64.379 21.4337 64.375 21.429 64.3707 21.4247C64.3703 21.4293 64.371 21.4337 64.3725 21.4379C64.3706 21.4334 64.3697 21.4284 64.3701 21.4234C64.369 21.4189 64.3679 21.4142 64.3669 21.4095L64.3663 21.4072C64.3655 21.4034 64.3646 21.3995 64.3637 21.3957C64.3266 21.3888 64.3015 21.3769 64.3432 21.3403L64.3313 21.2864L64.3271 21.2773C64.3241 21.2711 64.3212 21.2649 64.3183 21.2587L64.3171 21.258C64.2829 21.2405 64.2543 21.2187 64.2298 21.194C64.2543 21.2185 64.2828 21.24 64.317 21.2573C64.3127 21.2392 64.3088 21.2211 64.305 21.203C64.2984 21.1718 64.2918 21.1408 64.2832 21.1106C63.6434 19.0829 63.0036 17.0551 62.3638 15.0272C62.19 14.4738 62.0157 13.9203 61.841 13.3668C61.7613 13.1145 61.595 12.9385 61.3291 12.9324C60.8904 12.9225 60.4515 12.9258 60.0125 12.9292C59.835 12.9305 59.6575 12.9319 59.4799 12.9324C59.5751 13.1051 59.6733 13.2763 59.7714 13.4474C59.857 13.5967 59.9426 13.746 60.0262 13.8962C60.1371 14.0957 60.2515 14.2931 60.3657 14.4904C60.433 14.6065 60.5003 14.7226 60.5668 14.839C60.5012 14.7245 60.4349 14.6104 60.3685 14.4963C60.253 14.2974 60.1374 14.0984 60.0257 13.8976C59.9421 13.7474 59.8565 13.5981 59.7709 13.4488C59.6728 13.2777 59.5745 13.1065 59.4794 12.9338L59.2829 12.9235H58.2131L57.7944 12.9343C57.8445 13.0238 57.8945 13.1133 57.9444 13.2029L57.9445 13.2031C58.0521 13.3961 58.1597 13.589 58.2695 13.7808C58.3379 13.9002 58.4083 14.0183 58.4788 14.1363C58.5376 14.2349 58.5964 14.3334 58.6539 14.4325C58.7682 14.6301 58.8821 14.8284 58.996 15.0268L58.9961 15.027C59.1124 15.2296 59.2287 15.4323 59.3457 15.6344C59.3913 15.7136 59.4364 15.7932 59.4816 15.8729C59.5983 16.0789 59.7152 16.2853 59.8414 16.4864C59.9338 16.634 60.0168 16.7875 60.0998 16.9411C60.1519 17.0374 60.204 17.1338 60.2584 17.2286C60.3799 17.4403 60.5029 17.6511 60.6259 17.8619L60.626 17.8621L60.6262 17.8625C60.7317 18.0434 60.8373 18.2244 60.9419 18.4059C61.0488 18.5912 61.1544 18.7771 61.2601 18.963C61.34 19.1036 61.4199 19.2443 61.5004 19.3847C61.5815 19.5263 61.6636 19.6673 61.7457 19.8084L61.746 19.8089L61.7461 19.8091L61.7464 19.8097L61.7465 19.8099C61.7972 19.8969 61.8479 19.984 61.8983 20.0712C62.1773 20.5509 62.4551 21.0306 62.7318 21.5103C62.8766 21.7601 63.0202 22.01 63.1602 22.2632C63.1855 22.3086 63.2104 22.3544 63.2352 22.4002L63.2355 22.4008C63.3047 22.5282 63.374 22.6561 63.4533 22.7744C63.535 22.8972 63.6056 23.0252 63.676 23.153L63.6763 23.1536C63.7273 23.2462 63.7784 23.3388 63.8335 23.4291C64.0157 23.727 64.1888 24.0305 64.3618 24.334C64.4492 24.4873 64.5367 24.6406 64.6252 24.7931C64.6809 24.8889 64.7385 24.9837 64.7962 25.0784C64.8983 25.2464 65.0005 25.4144 65.0918 25.5882C65.2032 25.8003 65.3235 26.0069 65.4438 26.2136C65.5235 26.3505 65.6033 26.4874 65.6804 26.6259C65.7403 26.7335 65.8026 26.8396 65.8649 26.9457L65.8661 26.9479C65.9958 27.1687 66.1255 27.3896 66.2339 27.6238C66.2451 27.6481 66.2534 27.6755 66.2619 27.7035C66.2833 27.7741 66.3059 27.8485 66.3792 27.8857C66.3045 27.8488 66.2818 27.7738 66.2603 27.7027C66.2518 27.6747 66.2435 27.6473 66.2322 27.623C66.1242 27.3901 65.9949 27.1696 65.8657 26.9492C65.8025 26.8415 65.7394 26.7339 65.6788 26.6248C65.5997 26.4823 65.5177 26.3415 65.4357 26.2007C65.3175 25.9979 65.1994 25.7951 65.0901 25.5871C64.9988 25.4133 64.8967 25.2453 64.7945 25.0773L64.794 25.0765C64.7365 24.982 64.6791 24.8875 64.6236 24.792C64.535 24.6395 64.4476 24.4862 64.3602 24.3329C64.1871 24.0294 64.0141 23.7259 63.8318 23.428C63.7773 23.3384 63.7267 23.2466 63.6761 23.1546C63.6051 23.0257 63.534 22.8965 63.4516 22.7733C63.3723 22.655 63.3031 22.5272 63.2339 22.3998L63.2338 22.3996L63.2336 22.3992C63.2088 22.3534 63.1838 22.3075 63.1586 22.2621C63.0185 22.01 62.8743 21.7593 62.7302 21.5103C62.4523 21.0297 62.1745 20.5495 61.8967 20.0699C61.8462 19.9826 61.7955 19.8955 61.7448 19.8084C61.6624 19.6668 61.5801 19.5253 61.4987 19.3833C61.4184 19.2431 61.3386 19.1026 61.2587 18.9622L61.2584 18.9617C61.1528 18.7758 61.0471 18.5897 60.9403 18.4045C60.8355 18.2228 60.7299 18.0417 60.6242 17.8606C60.5012 17.6497 60.3782 17.4389 60.2567 17.2273C60.2045 17.1357 60.1542 17.0427 60.1039 16.9497C60.0191 16.7928 59.9342 16.6358 59.8397 16.4851C59.7184 16.2916 59.606 16.0934 59.4937 15.8952C59.4441 15.8077 59.3945 15.7201 59.3441 15.633C59.2405 15.4539 59.1373 15.2741 59.0341 15.0941L59.033 15.0923C58.9064 14.8718 58.7797 14.651 58.6522 14.4311C58.5947 14.332 58.5359 14.2335 58.4772 14.135L58.4771 14.1348C58.4066 14.0168 58.3362 13.8987 58.2679 13.7794C58.1581 13.5877 58.0505 13.3947 57.9429 13.2017C57.8929 13.1121 57.8429 13.0224 57.7927 12.9329L56.5502 12.9216L56.4119 12.9332L56.4118 12.9329C56.386 12.9321 56.3602 12.9311 56.3344 12.93C56.2046 12.9246 56.0749 12.9192 55.9463 12.9506C55.821 12.9811 55.7274 13.0613 55.6353 13.1443L55.6311 13.1499L55.6109 13.18C55.4928 13.4006 55.4994 13.6223 55.5758 13.858C55.8741 14.7821 56.1697 15.7072 56.4652 16.6322L56.4653 16.6324L56.4662 16.6354C56.6453 17.1957 56.8244 17.7561 57.004 18.3162C57.1104 18.6482 57.2193 18.9795 57.3282 19.3107L57.3284 19.3114C57.3812 19.4719 57.4339 19.6323 57.4864 19.7929C57.5076 19.928 57.5527 20.0563 57.5976 20.1843C57.6143 20.2317 57.6309 20.2791 57.6463 20.3267C58.0162 21.4886 58.3884 22.6503 58.7629 23.8118C58.9214 24.3022 59.0822 24.7916 59.243 25.2811L59.2575 25.325L59.2572 25.3275C59.2593 25.3367 59.2611 25.3461 59.2629 25.3557C59.2662 25.3728 59.2696 25.3906 59.2749 25.4083C59.5618 26.3099 59.8491 27.211 60.1369 28.1117L61.6866 32.9545C61.918 33.6768 62.1486 34.3994 62.3785 35.1222C62.4507 35.3491 62.5711 35.5284 62.8173 35.5907L62.8497 35.6045C63.532 35.6269 64.2135 35.6204 64.8964 35.6139C65.0154 35.6127 65.1344 35.6116 65.2534 35.6106L65.2534 35.6115H66.6075C66.6091 35.4882 66.5463 35.3915 66.4845 35.2962C66.4644 35.2653 66.4444 35.2345 66.4268 35.203C66.3247 35.0208 66.2168 34.842 66.109 34.6633L66.1089 34.6631C65.9752 34.4416 65.8417 34.2202 65.7192 33.9926C65.5787 33.7307 65.4302 33.4735 65.2818 33.2165C65.194 33.0644 65.1062 32.9124 65.0201 32.7594C64.8673 32.4877 64.7098 32.2181 64.5522 31.9485L64.552 31.9481C64.4597 31.7902 64.3674 31.6321 64.276 31.4737C63.9838 30.9655 63.6901 30.4576 63.3949 29.9501C63.3026 29.791 63.21 29.6321 63.1173 29.4732L63.1165 29.4718C62.9716 29.2232 62.8266 28.9746 62.6831 28.7252C62.5603 28.5108 62.438 28.2959 62.3158 28.081C62.1254 27.7465 61.935 27.4118 61.7422 27.0787C61.5848 26.8066 61.4256 26.5356 61.2664 26.2647L61.2661 26.2641L61.2655 26.2631C61.0975 25.977 60.9294 25.6908 60.7634 25.4036C60.6246 25.1635 60.4888 24.9218 60.353 24.68C60.262 24.5179 60.171 24.3559 60.0791 24.1943C59.9422 23.954 59.8038 23.7146 59.6653 23.4751C59.6206 23.3979 59.576 23.3207 59.5314 23.2434L58.6442 21.7065L59.5331 23.2443C59.5776 23.3215 59.6222 23.3986 59.6669 23.4758C59.8053 23.7153 59.9439 23.9548 60.0807 24.1951C60.1727 24.3567 60.2637 24.5188 60.3547 24.6808C60.4905 24.9226 60.6263 25.1644 60.7651 25.4044C60.931 25.6916 61.099 25.9776 61.267 26.2637L61.2677 26.2649L61.2678 26.2651L61.2681 26.2655C61.4272 26.5364 61.5864 26.8075 61.7439 27.0795C61.9054 27.3598 62.0656 27.6412 62.2258 27.9227C62.3783 28.1907 62.5309 28.4587 62.6848 28.7261C62.8285 28.9759 62.9737 29.2249 63.1189 29.4739C63.2116 29.6329 63.3043 29.7918 63.3965 29.9509C63.6912 30.4582 63.9849 30.9661 64.2777 31.4746C64.3747 31.6433 64.4732 31.8118 64.5718 31.9805C64.7233 32.2396 64.875 32.4991 65.0218 32.7603C65.1079 32.9132 65.1956 33.0652 65.2834 33.2173C65.4318 33.4743 65.5803 33.7315 65.7208 33.9934C65.8438 34.2225 65.9783 34.4453 66.1128 34.6681C66.2199 34.8456 66.3271 35.0231 66.4284 35.2038C66.4461 35.2353 66.4661 35.2661 66.4861 35.297C66.548 35.3923 66.6108 35.489 66.6091 35.6123C67.1252 35.6214 67.6413 35.6283 68.1572 35.6079L68.1576 35.6073C68.1673 35.6109 68.1779 35.6112 68.1877 35.608C68.1976 35.6049 68.2061 35.5985 68.2118 35.5899L68.2125 35.5901L68.2402 35.5807L68.2729 35.5644L68.3243 35.5414C68.3246 35.5399 68.3253 35.5384 68.3262 35.5371L68.3267 35.5365C68.327 35.5361 68.3273 35.5358 68.3276 35.5355C68.3282 35.5349 68.3289 35.5344 68.3296 35.534C68.3303 35.5336 68.3311 35.5332 68.3319 35.5329C68.3326 35.5327 68.3333 35.5326 68.3341 35.5325C68.3356 35.5323 68.3372 35.5324 68.3387 35.5329C68.5665 35.3843 68.6965 35.1795 68.6218 34.9061C68.5516 34.6496 68.4683 34.3967 68.385 34.1439C68.3488 34.0341 68.3126 33.9244 68.2776 33.8144L68.2676 33.7892L68.2535 33.7338C68.2497 33.7264 68.246 33.7182 68.2425 33.7101L68.2407 33.7061C68.2363 33.6882 68.2322 33.6702 68.228 33.6522L68.2136 33.6212L68.202 33.5697L68.1871 33.536C68.1832 33.5197 68.1793 33.5033 68.1757 33.4867L68.1599 33.451L68.1492 33.404L68.1328 33.366L68.128 33.3487L68.124 33.3347C68.1199 33.3201 68.1158 33.3054 68.1118 33.2908L68.1018 33.2653ZM57.4864 19.7929C57.5786 19.8277 57.6153 19.9086 57.6506 19.9866C57.663 20.0138 57.6752 20.0407 57.6895 20.0652C57.6745 20.0401 57.6619 20.0124 57.6491 19.9844C57.614 19.9071 57.5778 19.8274 57.4864 19.7929ZM63.0411 19.1293C62.7789 18.6739 62.5168 18.2186 62.2546 17.7633C62.5161 18.219 62.7782 18.6743 63.0411 19.1293ZM59.3238 25.2525C59.3456 25.2571 59.3579 25.2789 59.3695 25.2995L59.3718 25.3037L59.3742 25.3079C59.452 25.4443 59.5289 25.5814 59.6058 25.7185C59.7859 26.0396 59.966 26.3608 60.1582 26.6746C60.259 26.8393 60.353 27.0079 60.4469 27.1765C60.5755 27.4073 60.704 27.6381 60.8501 27.8585C60.9189 27.9624 60.9758 28.0742 61.0327 28.186C61.0881 28.2948 61.1435 28.4035 61.2098 28.505C61.2945 28.634 61.368 28.7697 61.4414 28.9054C61.5359 29.0799 61.6304 29.2545 61.7489 29.4149C61.794 29.4761 61.8295 29.5445 61.8651 29.613L61.8653 29.6134C61.8828 29.6472 61.9004 29.681 61.9191 29.714C61.997 29.8517 62.0747 29.9897 62.1524 30.1276C62.2935 30.378 62.4345 30.6285 62.5774 30.8779C62.4481 30.6516 62.3203 30.4243 62.1925 30.1972L62.192 30.1962L62.1918 30.196L62.1916 30.1956L62.1913 30.195L62.1909 30.1944C62.1009 30.0344 62.0109 29.8744 61.9205 29.7148C61.9018 29.6819 61.8842 29.6481 61.8667 29.6144L61.8665 29.614C61.831 29.5455 61.7954 29.4769 61.7503 29.4157C61.6322 29.2559 61.5382 29.0821 61.4441 28.9082C61.3704 28.7718 61.2966 28.6354 61.2112 28.5058C61.1443 28.404 61.0887 28.2945 61.0331 28.1852C60.9764 28.0736 60.9198 27.9622 60.8514 27.8593C60.7033 27.6362 60.5734 27.4029 60.4435 27.1697C60.351 27.0037 60.2585 26.8377 60.1596 26.6755C59.9674 26.3616 59.7873 26.0405 59.6071 25.7193C59.5303 25.5822 59.4534 25.4452 59.3756 25.3087C59.3741 25.3061 59.3726 25.3033 59.3711 25.3006L59.3694 25.2975C59.3582 25.2769 59.3465 25.2555 59.3238 25.2525ZM61.2052 21.2853L61.205 21.2849C61.1016 21.107 60.9983 20.929 60.8952 20.7508C60.9866 20.9085 61.0782 21.0661 61.1697 21.2237L61.1703 21.2247L61.1704 21.2249L61.1709 21.2257C61.3801 21.5858 61.5895 21.9461 61.796 22.3076C61.6007 21.9663 61.4032 21.6263 61.2058 21.2863L61.2057 21.2862L61.2052 21.2853ZM64.5014 26.9949C64.7509 27.4342 65.0016 27.8728 65.2535 28.3109C65.0024 27.8724 64.7517 27.4337 64.5014 26.9949Z" fill="#1A77F2"/>
<path d="M64.3643 21.3957C64.3272 21.3882 64.302 21.3763 64.3438 21.3403C64.3521 21.3467 64.3584 21.3553 64.362 21.3651C64.3657 21.3748 64.3664 21.3855 64.3643 21.3957Z" fill="#1A77F2"/>
<path d="M72.3583 22.3964C72.356 22.3854 72.3568 22.3741 72.3606 22.3637C72.3644 22.3532 72.3711 22.344 72.3798 22.3371C72.382 22.348 72.3811 22.3593 72.3773 22.3697C72.3735 22.3802 72.3669 22.3894 72.3583 22.3964Z" fill="#1A77F2"/>
<path d="M72.3281 22.4697L72.3519 22.4201C72.3536 22.4412 72.3538 22.4617 72.3281 22.4697Z" fill="#1A77F2"/>
<path d="M72.7161 21.3403C72.723 21.3224 72.7299 21.3044 72.7366 21.2864C72.7387 21.2964 72.7379 21.3068 72.7343 21.3164C72.7306 21.326 72.7243 21.3343 72.7161 21.3403Z" fill="#1A77F2"/>
<path d="M68.2457 33.7165C68.2441 33.7129 68.2424 33.7093 68.2408 33.7059C68.2434 33.7111 68.2459 33.7167 68.2485 33.7224L68.2504 33.7269C68.2514 33.7291 68.2524 33.7313 68.2535 33.7335C68.2523 33.7311 68.2512 33.7286 68.2501 33.7261L68.2457 33.7165Z" fill="#1A77F2"/>
<path d="M68.3262 35.538C68.3253 35.5393 68.3246 35.5407 68.3243 35.5423L68.3348 35.5437L68.3387 35.5337C68.3372 35.5332 68.3356 35.5331 68.3341 35.5333C68.3334 35.5334 68.3328 35.5335 68.3322 35.5337C68.3313 35.5339 68.3304 35.5343 68.3296 35.5348C68.3287 35.5354 68.3278 35.5361 68.3271 35.5369C68.3268 35.5372 68.3265 35.5376 68.3262 35.538Z" fill="#1A77F2"/>
</svg>
